<?xml version="1.0" encoding="UTF-8"?>
<svg xmlns="http://www.w3.org/2000/svg" xmlns:xlink="http://www.w3.org/1999/xlink" width="375pt" height="374.999991pt" viewBox="0 0 375 374.999991" version="1.2">
<defs>
<clipPath id="clip1">
  <path d="M 28.445312 3.886719 L 346.445312 3.886719 L 346.445312 371.386719 L 28.445312 371.386719 Z M 28.445312 3.886719 "/>
</clipPath>
</defs>
<g id="surface1">
<g clip-path="url(#clip1)" clip-rule="nonzero">
<path style=" stroke:none;fill-rule:nonzero;fill:rgb(98.039246%,98.039246%,98.039246%);fill-opacity:1;" d="M 48.542969 267.921875 L 187.445312 348.207031 L 326.351562 267.921875 L 326.351562 107.355469 L 187.445312 27.070312 L 48.542969 107.355469 Z M 187.445312 371.371094 L 28.503906 279.503906 L 28.503906 95.769531 L 187.445312 3.90625 L 346.390625 95.769531 L 346.390625 279.503906 L 187.445312 371.371094 "/>
</g>
<path style=" stroke:none;fill-rule:nonzero;fill:rgb(98.039246%,98.039246%,98.039246%);fill-opacity:1;" d="M 289.425781 134.484375 L 187.445312 75.542969 L 85.46875 134.484375 L 75.449219 117.113281 L 187.445312 52.378906 L 299.449219 117.113281 L 289.425781 134.484375 "/>
<path style=" stroke:none;fill-rule:nonzero;fill:rgb(98.039246%,98.039246%,98.039246%);fill-opacity:1;" d="M 331.363281 282.402344 L 33.511719 110.25 L 43.535156 92.875 L 341.378906 265.027344 L 331.363281 282.402344 "/>
<path style=" stroke:none;fill-rule:nonzero;fill:rgb(98.039246%,98.039246%,98.039246%);fill-opacity:1;" d="M 43.535156 282.402344 L 33.511719 265.027344 L 331.363281 92.875 L 341.378906 110.25 L 43.535156 282.402344 "/>
<path style=" stroke:none;fill-rule:nonzero;fill:rgb(98.039246%,98.039246%,98.039246%);fill-opacity:1;" d="M 197.46875 63.960938 L 177.429688 63.960938 L 177.429688 10.539062 L 197.46875 10.539062 L 197.46875 63.960938 "/>
<path style=" stroke:none;fill-rule:nonzero;fill:rgb(98.039246%,98.039246%,98.039246%);fill-opacity:1;" d="M 298.421875 301.386719 L 70.4375 168.070312 L 70.4375 125.800781 L 90.480469 125.800781 L 90.480469 156.554688 L 308.53125 284.066406 L 298.421875 301.386719 "/>
<path style=" stroke:none;fill-rule:nonzero;fill:rgb(98.039246%,98.039246%,98.039246%);fill-opacity:1;" d="M 134.335938 162.664062 L 124.199219 145.359375 L 230.355469 83.039062 L 240.492188 100.34375 L 134.335938 162.664062 "/>
<path style=" stroke:none;fill-rule:nonzero;fill:rgb(98.039246%,98.039246%,98.039246%);fill-opacity:1;" d="M 334.46875 225.371094 L 177.183594 130.695312 L 187.511719 113.5 L 344.796875 208.175781 L 334.46875 225.371094 "/>
<path style=" stroke:none;fill-rule:nonzero;fill:rgb(98.039246%,98.039246%,98.039246%);fill-opacity:1;" d="M 103.957031 317.386719 L 94.046875 299.949219 L 211.4375 233.082031 L 221.347656 250.523438 L 103.957031 317.386719 "/>
<path style=" stroke:none;fill-rule:nonzero;fill:rgb(98.039246%,98.039246%,98.039246%);fill-opacity:1;" d="M 138.226562 342.003906 L 128.316406 324.566406 L 245.707031 257.703125 L 255.621094 275.140625 L 138.226562 342.003906 "/>
</g>
</svg>
